<mxfile host="65bd71144e">
    <diagram id="53MEjHXq6fo7oVXVf5S7" name="Page-1">
        <mxGraphModel dx="172" dy="82" grid="1" gridSize="10" guides="1" tooltips="1" connect="1" arrows="1" fold="1" page="1" pageScale="1" pageWidth="850" pageHeight="1100" math="0" shadow="0">
            <root>
                <mxCell id="0"/>
                <mxCell id="1" parent="0"/>
                <mxCell id="6" value="«interface»&lt;br&gt;&lt;b&gt;ODESolver&lt;/b&gt;" style="html=1;" vertex="1" parent="1">
                    <mxGeometry x="410" y="100" width="110" height="50" as="geometry"/>
                </mxCell>
            </root>
        </mxGraphModel>
    </diagram>
</mxfile>